<svg width="24" height="19" viewBox="0 0 24 19" fill="none" xmlns="http://www.w3.org/2000/svg">
<path fill-rule="evenodd" clip-rule="evenodd" d="M22.2138 3.42967C21.4408 3.75167 20.6098 3.96667 19.7388 4.06467C20.6288 3.56467 21.3118 2.77267 21.6338 1.83067C20.7998 2.29267 19.8778 2.62867 18.8958 2.81067C18.1108 2.02467 16.9898 1.53467 15.7508 1.53467C13.3708 1.53467 11.4398 3.34367 11.4398 5.57367C11.4398 5.89067 11.4778 6.19967 11.5518 6.49467C7.96981 6.32567 4.79381 4.71767 2.66781 2.27467C2.29681 2.87167 2.08481 3.56467 2.08481 4.30567C2.08481 5.70567 2.84581 6.94367 4.00181 7.66767C3.29581 7.64567 2.63181 7.46467 2.04981 7.16167C2.04981 7.17967 2.04981 7.19467 2.04981 7.21367C2.04981 9.17067 3.53481 10.8027 5.50681 11.1737C5.14581 11.2657 4.76381 11.3137 4.37181 11.3137C4.09381 11.3137 3.82381 11.2897 3.56081 11.2437C4.10881 12.8467 5.70081 14.0157 7.58681 14.0487C6.11181 15.1317 4.25381 15.7767 2.23381 15.7767C1.88581 15.7767 1.54281 15.7577 1.20581 15.7207C3.11281 16.8657 5.37881 17.5357 7.81281 17.5357C15.7408 17.5357 20.0758 11.3797 20.0758 6.04267C20.0758 5.86667 20.0708 5.69367 20.0628 5.51967C20.9048 4.94967 21.6358 4.23867 22.2138 3.42967Z" fill="white" stroke="black"/>
</svg>
